<svg xmlns="http://www.w3.org/2000/svg" fill="none" viewBox="0 0 88 40">
  <path fill="#6366F1" d="M22.354 3.763c.527.018.99.033 1.307.555.454.75.357 1.95.246 3.327l-.042.536H.178l-.063-.699c-.14-1.53-.217-2.386.16-3.202.32-.69 1.025-.668 1.732-.597.609.062.793-.554.821-1.352l.002-.052c.034-.967.07-1.993.6-2.189.366-.134.881-.09 1.415-.046.273.023.552.046.818.046h13.202c.173 0 .369-.009.57-.018.62-.028 1.293-.059 1.518.163.298.295.34 1.179.361 2.011a6.17 6.17 0 0 1-.005.308c-.011.358-.025.792.121 1.017.126.193.376.189.59.185.054 0 .106-.002.152 0l.18.007h.002Z"/>
  <path fill="#6366F1" d="M2.712 34.95h.78L3.909 40H19.54l.416-5.05h.78c.25-3.728.507-7.446.763-11.164v-.009l.001-.002c.329-4.76.657-9.52.971-14.301H.977c.314 4.781.642 9.54.971 14.3v.003l.001.01c.257 3.717.513 7.435.763 11.163Z"/>
  <path fill="#3F3F46" d="M52.26 3.92c0-2.613 1.552-3.92 4.656-3.92.4 0 .88.039 1.438.116v2.69c-.279-.03-.54-.046-.785-.046-.889 0-1.334.371-1.334 1.114v.208h2.12V6.82h-2.12v10.948H52.26V6.82h-1.49V4.082h1.49V3.92Z"/>
  <path fill="#3F3F46" d="M30.439 2.621c-.96.68-1.439 1.64-1.439 2.876v8.49c0 1.237.47 2.196 1.412 2.876.96.68 2.415 1.021 4.368 1.021 1.343 0 2.485-.116 3.426-.348v-3.131c-.854.232-1.944.348-3.269.348-1.308 0-1.962-.372-1.962-1.114V5.845c0-.37.14-.65.42-.835.278-.2.888-.301 1.83-.301.959 0 1.927.131 2.903.394V1.902c-.907-.216-2.005-.325-3.295-.325-1.953 0-3.418.348-4.394 1.044Z"/>
  <path fill="#3F3F46" fill-rule="evenodd" d="M41.008 4.848c-.82.65-1.229 1.562-1.229 2.737v6.68c0 1.176.41 2.096 1.23 2.76.836.65 2.083.975 3.74.975 1.656 0 2.894-.325 3.713-.974.837-.665 1.256-1.585 1.256-2.76V7.584c0-1.175-.419-2.088-1.256-2.737-.82-.665-2.057-.998-3.714-.998-1.656 0-2.903.333-3.74.998Zm3.74 1.972c.733 0 1.099.293 1.099.881v6.449c0 .587-.366.88-1.099.88-.732 0-1.098-.293-1.098-.88V7.7c0-.588.366-.881 1.099-.881Z" clip-rule="evenodd"/>
  <path fill="#3F3F46" d="M64.629 0c-3.104 0-4.656 1.307-4.656 3.92v.162h-1.49V6.82h1.49v10.948h3.976V6.82h2.118V4.082H63.95v-.208c0-.743.445-1.114 1.334-1.114.244 0 .506.016.784.047V.116A10.704 10.704 0 0 0 64.63 0Z"/>
  <path fill="#3F3F46" fill-rule="evenodd" d="M66.981 13.871V7.585c0-1.175.41-2.088 1.23-2.737.819-.665 2.057-.998 3.713-.998 3.191 0 4.787 1.245 4.787 3.735v4.709h-5.938v1.299c0 .464.14.796.419.997.296.186.933.278 1.91.278.993 0 2.074-.154 3.242-.463v3.061c-1.22.294-2.528.441-3.923.441-3.627 0-5.44-1.345-5.44-4.036Zm3.793-4.245h2.301V7.631c0-.587-.383-.881-1.15-.881-.768 0-1.151.294-1.151.881v1.995Z" clip-rule="evenodd"/>
  <path fill="#3F3F46" fill-rule="evenodd" d="M78.27 7.585v6.286c0 2.69 1.814 4.036 5.44 4.036 1.396 0 2.703-.147 3.924-.44v-3.062c-1.168.309-2.25.463-3.243.463-.977 0-1.613-.092-1.91-.278-.279-.2-.418-.533-.418-.997v-1.3H88V7.586c0-2.49-1.596-3.735-4.786-3.735-1.657 0-2.895.333-3.714.998-.82.65-1.23 1.562-1.23 2.737Zm6.095 2.041h-2.302V7.631c0-.587.383-.881 1.15-.881.768 0 1.152.294 1.152.881v1.995Z" clip-rule="evenodd"/>
  <path fill="#3F3F46" d="M53.452 23.895c0 .596.305.894.916.894.624 0 .936-.298.936-.894 0-.597-.312-.895-.936-.895-.61 0-.916.298-.916.895Z"/>
  <path fill="#3F3F46" d="M55.134 26.112h-1.512v10.99h1.512v-10.99Z"/>
  <path fill="#3F3F46" d="M49.172 23.097h1.512v14.005h-1.512V23.097Z"/>
  <path fill="#3F3F46" fill-rule="evenodd" d="M33.748 24.03H30v13.072h3.79c1.136 0 1.988-.266 2.556-.798.567-.531.851-1.257.851-2.178v-7.158c0-.895-.29-1.608-.873-2.14-.582-.531-1.44-.797-2.576-.797Zm-.085 1.207c1.348 0 2.022.583 2.022 1.75v7.1c0 1.193-.674 1.79-2.023 1.79h-2.15v-10.64h2.15Z" clip-rule="evenodd"/>
  <path fill="#3F3F46" fill-rule="evenodd" d="M39.685 28.874v5.408c0 1.945 1.334 2.917 4.003 2.917.98 0 1.824-.104 2.534-.311v-1.284c-.894.234-1.76.35-2.598.35-.837 0-1.455-.142-1.852-.428-.398-.285-.596-.72-.596-1.303V32.26h5.408v-3.385c0-.92-.284-1.653-.852-2.198-.553-.557-1.412-.836-2.576-.836-1.164 0-2.037.279-2.62.836-.567.545-.851 1.277-.851 2.198Zm5.451 2.237h-3.96v-2.237c0-1.219.66-1.828 1.98-1.828 1.32 0 1.98.61 1.98 1.828v2.237Z" clip-rule="evenodd"/>
  <path fill="#3F3F46" d="M62.927 26.034h1.533l-2.683 11.068h-2.13l-2.682-11.068h1.554l1.171 5.077 1.044 5.018c.426-2.152 1.157-5.517 2.193-10.095Z"/>
  <path fill="#3F3F46" fill-rule="evenodd" d="M66.073 28.874v5.408c0 1.945 1.334 2.917 4.003 2.917.98 0 1.824-.104 2.534-.311v-1.284c-.894.234-1.76.35-2.598.35-.837 0-1.455-.142-1.852-.428-.398-.285-.596-.72-.596-1.303V32.26h5.408v-3.385c0-.92-.284-1.653-.852-2.198-.553-.557-1.412-.836-2.576-.836-1.164 0-2.037.279-2.62.836-.567.545-.851 1.277-.851 2.198Zm5.451 2.237h-3.96v-2.237c0-1.219.66-1.828 1.98-1.828 1.32 0 1.98.61 1.98 1.828v2.237Z" clip-rule="evenodd"/>
  <path fill="#3F3F46" d="M79.478 25.976h.532v1.323h-.724c-.51 0-.972.123-1.383.37-.128.077-.405.252-.831.524v8.909H75.56V26.034h1.448v.837c.043-.026.15-.098.32-.214a9.584 9.584 0 0 1 .596-.35c.156-.078.27-.124.34-.136.086-.026.2-.059.341-.098.213-.065.504-.097.873-.097Z"/>
  <path fill="#3F3F46" d="M88 26.034h-1.512L85.19 31.54c-.34 1.53-.653 3.06-.937 4.59l-.936-4.59-1.278-5.505h-1.533l2.64 11.068h.745L83.23 40h1.448L88 26.034Z"/>
</svg>
